<?xml version="1.0" encoding="UTF-8" standalone="no"?>
<!-- Created with Inkscape (http://www.inkscape.org/) -->

<svg
   width="32"
   height="32"
   viewBox="0 0 8.4666667 8.4666666"
   version="1.1"
   id="svg1"
   xml:space="preserve"
   inkscape:version="1.4.3 (0d15f75042, 2025-12-25)"
   sodipodi:docname="logo.svg"
   xmlns:inkscape="http://www.inkscape.org/namespaces/inkscape"
   xmlns:sodipodi="http://sodipodi.sourceforge.net/DTD/sodipodi-0.dtd"
   xmlns="http://www.w3.org/2000/svg"
   xmlns:svg="http://www.w3.org/2000/svg"><sodipodi:namedview
     id="namedview1"
     pagecolor="#ffffff"
     bordercolor="#999999"
     borderopacity="1"
     inkscape:showpageshadow="2"
     inkscape:pageopacity="0"
     inkscape:pagecheckerboard="0"
     inkscape:deskcolor="#d1d1d1"
     inkscape:document-units="px"
     inkscape:zoom="16.085846"
     inkscape:cx="28.845235"
     inkscape:cy="18.898602"
     inkscape:window-width="1904"
     inkscape:window-height="995"
     inkscape:window-x="24"
     inkscape:window-y="21"
     inkscape:window-maximized="0"
     inkscape:current-layer="layer1-5" /><defs
     id="defs1"><rect
       x="6"
       y="6.0625"
       width="19.9375"
       height="19.9375"
       id="rect3" /><rect
       x="-0.1875"
       y="-0.1875"
       width="32.25"
       height="32.125"
       id="rect1" /><rect
       x="6"
       y="6.0625"
       width="19.9375"
       height="19.9375"
       id="rect3-7" /><rect
       x="6"
       y="6.0625"
       width="19.9375"
       height="19.9375"
       id="rect3-9" /></defs><g
     inkscape:label="Warstwa 1"
     inkscape:groupmode="layer"
     id="layer1"><g
       inkscape:label="Warstwa 1"
       id="layer1-5"><rect
         style="fill:#ffffff;stroke-width:0.423998"
         id="rect2"
         x="1.2e-08"
         y="4.5765618e-09"
         width="8.4666662"
         height="8.4666662" /><rect
         style="fill:#1a1a1a;stroke-width:0.27369"
         id="rect4-2"
         width="4.2333331"
         height="8.4666662"
         x="-1.7347235e-18"
         y="0" /><rect
         style="fill:#4d4d4d;stroke-width:0.27369"
         id="rect4"
         width="4.2333331"
         height="8.4666662"
         x="4.2333331"
         y="-1.7347235e-18" /><path
         sodipodi:type="star"
         style="fill:#333333;stroke-width:0.264999"
         id="path5"
         inkscape:flatsided="true"
         sodipodi:sides="3"
         sodipodi:cx="0.54957294"
         sodipodi:cy="-0.011693042"
         sodipodi:r1="4.2913623"
         sodipodi:r2="2.1456811"
         sodipodi:arg1="1.5735211"
         sodipodi:arg2="2.6207187"
         inkscape:rounded="0"
         inkscape:randomized="0"
         d="m 0.53787997,4.2796533 -3.69887547,-6.4471459 7.4328299,0.020253 z"
         inkscape:transform-center-x="-0.0066598081"
         inkscape:transform-center-y="0.87640332"
         transform="matrix(1.1390906,0,0,0.8207766,3.6006603,1.7790272)" /><path
         class="st0"
         d="m 496,293.984 c 9.031,-0.703 16,-8.25 16,-17.297 v -41.375 c 0,-9.063 -6.969,-16.594 -16,-17.313 l -54.828,-4.281 c -3.484,-0.266 -6.484,-2.453 -7.828,-5.688 l -18.031,-43.516 c -1.344,-3.219 -0.781,-6.906 1.5,-9.547 l 35.75,-41.813 c 5.875,-6.891 5.5,-17.141 -0.922,-23.547 l -29.25,-29.25 c -6.406,-6.406 -16.672,-6.813 -23.547,-0.922 l -41.813,35.75 c -2.641,2.266 -6.344,2.844 -9.547,1.516 L 303.953,78.654 c -3.219,-1.328 -5.422,-4.375 -5.703,-7.828 L 293.984,16.013 C 293.281,6.969 285.75,0 276.688,0 h -41.375 c -9.063,0 -16.594,6.969 -17.297,16.016 l -4.281,54.813 c -0.266,3.469 -2.469,6.5 -5.688,7.828 l -43.531,18.047 c -3.219,1.328 -6.906,0.75 -9.563,-1.516 L 113.156,59.438 C 106.281,53.547 96.031,53.954 89.609,60.36 l -29.25,29.25 c -6.406,6.406 -6.797,16.656 -0.922,23.547 l 35.75,41.813 c 2.25,2.641 2.844,6.328 1.5,9.547 l -18.031,43.516 c -1.313,3.234 -4.359,5.422 -7.813,5.688 L 16,218 c -9.031,0.719 -16,8.25 -16,17.313 v 41.359 c 0,9.063 6.969,16.609 16,17.313 l 54.844,4.266 c 3.453,0.281 6.5,2.484 7.813,5.703 l 18.031,43.516 c 1.344,3.219 0.75,6.922 -1.5,9.563 l -35.75,41.813 c -5.875,6.875 -5.484,17.125 0.922,23.547 l 29.25,29.25 c 6.422,6.406 16.672,6.797 23.547,0.906 l 41.797,-35.75 c 2.656,-2.25 6.344,-2.844 9.563,-1.5 l 43.531,18.031 c 3.219,1.344 5.422,4.359 5.688,7.844 l 4.281,54.813 c 0.703,9.031 8.234,16.016 17.297,16.016 h 41.375 c 9.063,0 16.594,-6.984 17.297,-16.016 l 4.266,-54.813 c 0.281,-3.484 2.484,-6.5 5.703,-7.844 l 43.531,-18.031 c 3.203,-1.344 6.922,-0.75 9.547,1.5 l 41.813,35.75 c 6.875,5.891 17.141,5.5 23.547,-0.906 l 29.25,-29.25 c 6.422,-6.422 6.797,-16.672 0.922,-23.547 l -35.75,-41.813 c -2.25,-2.641 -2.844,-6.344 -1.5,-9.563 l 18.031,-43.516 c 1.344,-3.219 4.344,-5.422 7.828,-5.703 z m -240,48.532 c -23.109,0 -44.844,-9 -61.188,-25.328 -16.344,-16.359 -25.344,-38.078 -25.344,-61.203 0,-23.109 9,-44.844 25.344,-61.172 16.344,-16.359 38.078,-25.344 61.188,-25.344 23.125,0 44.844,8.984 61.188,25.344 16.344,16.328 25.344,38.063 25.344,61.172 0,23.125 -9,44.844 -25.344,61.203 -16.344,16.328 -38.063,25.328 -61.188,25.328 z"
         id="path1"
         style="fill:#808080"
         transform="scale(0.01653646)" /><path
         id="text2-0"
         style="writing-mode:lr-tb;direction:ltr;white-space:pre;shape-inside:url(#rect3-9);display:inline;fill:#000000;stroke-width:1.00157"
         d="m 6,8.4129939 2.8558403,5.2922511 v 3.275757 H 9.9361596 V 13.657134 L 12.57975,8.8025915 V 8.4129939 H 11.627941 L 9.396,12.624831 7.1760806,8.4129939 Z"
         transform="matrix(1.2465646,0,0,0.98817207,-7.2148043,-8.3134856)" /><path
         id="text2"
         style="writing-mode:lr-tb;direction:ltr;white-space:pre;shape-inside:url(#rect3);fill:#cccccc;stroke-width:1.11162"
         d="M 2.4656459e-8,0 3.5599894,5.2296547 V 8.4666663 H 4.9066772 V 5.1821127 L 8.4666667,0 H 7.0155919 L 4.2333333,4.1620197 1.4660603,0 Z M 3.5718749,7.9375001 H 4.8947916 V 8.400521 H 3.5718749 Z" /><rect
         style="fill:#cccccc;stroke-width:0.270611"
         id="rect5"
         width="1.3300835"
         height="0.50572407"
         x="3.5718749"
         y="7.9199605" /></g><g
       id="g1"
       transform="scale(0.01653646)"
       style="fill:#666666">
	
</g></g><style
     type="text/css"
     id="style1">
<![CDATA[
	.st0{fill:#000000;}
]]>
</style></svg>
